<svg width="63" height="50" viewBox="0 0 63 50" fill="none" xmlns="http://www.w3.org/2000/svg">
<path d="M35.1618 30.1411L49.5467 36.7265C49.1391 39.7729 47.9062 43.8661 45.5924 45.8893C43.2787 47.9125 40.3088 49.0266 37.2353 49.0242C27.7711 49.0242 18.6947 45.2646 12.0025 38.5725C5.31039 31.8803 1.55078 22.8039 1.55078 13.3398C1.54843 10.2662 2.66246 7.29635 4.68567 4.98259C6.70888 2.66883 10.8058 1.43186 13.8523 1.02422C13.8498 1.02693 13.8485 1.02831 13.8485 1.02831L20.4335 15.4147L14.1503 24.0539C16.3202 28.4961 22.1594 34.2712 26.6147 36.4202L35.1618 30.1411Z" fill="#060606" stroke="white" stroke-width="1.2" stroke-linecap="round" stroke-linejoin="round"/>
<path fill-rule="evenodd" clip-rule="evenodd" d="M58.5365 31.9103C60.5854 29.0698 61.7927 25.5818 61.7927 21.8119C61.7927 12.2684 54.0561 4.53178 44.5126 4.53178C34.969 4.53178 27.2324 12.2684 27.2324 21.8119C27.2324 31.3555 34.969 39.092 44.5126 39.092C47.8604 39.092 50.986 38.14 53.6331 36.4918L60.2383 38.2616L58.5365 31.9103Z" fill="#141414"/>
<path d="M58.5365 31.9103L58.0499 31.5593C57.9444 31.7055 57.9102 31.8914 57.9569 32.0656L58.5365 31.9103ZM53.6331 36.4918L53.7884 35.9122C53.628 35.8693 53.457 35.8947 53.316 35.9825L53.6331 36.4918ZM60.2383 38.2616L60.083 38.8412C60.2901 38.8967 60.511 38.8375 60.6626 38.6859C60.8141 38.5343 60.8733 38.3134 60.8179 38.1063L60.2383 38.2616ZM61.1927 21.8119C61.1927 25.4517 60.0276 28.8176 58.0499 31.5593L59.0231 32.2613C61.1433 29.322 62.3927 25.712 62.3927 21.8119H61.1927ZM44.5126 5.13178C53.7247 5.13178 61.1927 12.5997 61.1927 21.8119H62.3927C62.3927 11.937 54.3875 3.93178 44.5126 3.93178V5.13178ZM27.8324 21.8119C27.8324 12.5997 35.3004 5.13178 44.5126 5.13178V3.93178C34.6376 3.93178 26.6324 11.937 26.6324 21.8119H27.8324ZM44.5126 38.492C35.3004 38.492 27.8324 31.0241 27.8324 21.8119H26.6324C26.6324 31.6868 34.6376 39.692 44.5126 39.692V38.492ZM53.316 35.9825C50.7612 37.5731 47.7451 38.492 44.5126 38.492V39.692C47.9758 39.692 51.2107 38.7068 53.9503 37.0011L53.316 35.9825ZM60.3936 37.6821L53.7884 35.9122L53.4779 37.0714L60.083 38.8412L60.3936 37.6821ZM57.9569 32.0656L59.6587 38.4169L60.8179 38.1063L59.116 31.755L57.9569 32.0656Z" fill="white"/>
</svg>
